<svg xmlns="http://www.w3.org/2000/svg" viewBox="0 0 240 240" width="24" height="24">
  <path d="M120,15c11.5,0,23,0,34.5,0c5.3,0.9,9.6,3.7,12.9,8c4.5,5.9,8.5,12.1,12.8,18.1c2.3,3.3,4.7,6.5,6.9,9.8c2.9,4.2,6.2,8.2,8.4,12.8
    c3.6,7.8,7.1,15.6,10.1,23.6c4.8,12.9,5.8,26.3,5.1,40c-0.6,11.9-2.6,23.5-6.2,34.8c-2.3,7.3-5.6,14.1-10.5,20
    c-3.3,3.9-6.8,7.8-10.7,11.1c-11.7,9.7-25.3,14.9-40.3,16.4c-1.6,0.1-3.1,0.4-4.6,0.6c-9.6,0-19.2,0-28.9,0c-6.5-0.9-13-1.7-19.4-3.1
    c-15.1-3.4-27.5-11.4-37.5-23c-5.5-6.4-9.7-13.7-12.8-21.6c-4.4-11.2-7.1-22.8-8.2-34.8c-0.9-10,0.3-19.8,2-29.6
    c1.2-6.8,3.1-13.4,5.6-19.8c2.8-7.2,6.1-14.1,10.6-20.4c4.1-5.7,7.3-11.9,10.8-17.9c3.6-6.2,7.3-12.2,12.3-17.3
    c5.1-5.3,11.6-8.3,19-8.6C101.7,15,110.8,15,120,15z M170.7,120.1c-0.1-27.2-22.8-49.8-50.1-49.7c-27.3,0.1-49.8,22.9-49.7,50.3
    c0.1,27.2,22.8,49.8,50.1,49.7C148.4,170.3,170.9,147.4,170.7,120.1z"/>
  <path d="M120.7,85.1c13.4,0,24.9,5.6,33.1,16.8c0.3,0.3,0.5,0.7,0.9,1.2c-1.5,0.8-2.8,1.7-4.2,2.4c-3.6,1.7-7.2,3.2-10.9,4.7
    c-0.9,0.4-1.2,0,1.2-5c-2.3-3.1-5.5-5.1-9.3-6.1c-1.5-0.4-3-0.3-4.5-0.5c-3.5-0.4-6.8,0.1-9.9,1.7c-0.9,0.5-1.3,1.2-1.1,2.3
    c0.4,2.4,2.3,3.2,4.3,3.9c1.9,0.7,3.8,1.4,5.8,1.9c6.1,1.5,12.4,2.5,18.4,4.5c4.8,1.6,8.9,4.2,11.2,9c3.2,6.6,3.1,13.5-0.2,20.1
    c-2.5,5-6.5,8.5-11.7,10.6c-3.3,1.4-6.8,2.2-10.5,2.2c-0.8,0.7-0.2,1.2-0.3,1.6c-0.3,1.6-0.7,3.1-1,4.7c-0.4,1.8-1.1,3.6-1.7,5.3
    c-0.2,0.5-0.5,0.9-1.2,0.9c-2.6,0-5.2,0-7.8,0c-0.8,0-1.1-0.3-1.3-1c-1.1-3.9-2.3-7.8-3.5-11.7c-0.2-0.7-0.1-0.9,0.5-1.1
    c6.6-2.8,13.1-5.7,19.7-8.5c0.2-0.1,0.4-0.3,0.8-0.6c-0.5-0.5-1-1.1-1.5-1.5c-3.2-2.6-5.1-6-5.7-10.2c-0.1-0.4-0.2-0.7-0.7-0.5
    c-3.2,1.4-6.5,2.8-9.7,4.2c-0.7,0.3-1.2,0.8-1.2,1.6c0.1,4.4,0.2,8.9,0.4,13.3c0,0.6-0.1,0.9-0.8,1c-1.3,0.2-2.6,0.4-3.9,0.6
    c-1,0.2-2,0.4-3.1,0.4c-2,0-3.3-1-3.4-2.9c-0.2-2.4-0.3-4.8-0.5-7.3c-0.4-4.5-0.6-9.1-1.3-13.6c-0.6-3.9-0.4-7.7-0.3-11.6
    c0.1-3.3,0.2-6.6,0.3-9.9c0-0.6,0.2-0.9,0.8-1.2c2.5-1.1,5-2.2,7.6-3.3c9.8-4.3,19.7-8.5,29.5-12.8c0.5-0.2,1-0.5,1.5-0.7
    C119.8,85.1,120.2,85.1,120.7,85.1z M121.5,120.2c0.7-1.9-1.2-3.9-3.5-3.9c-5.3,0-10.7,0-16,0c-0.5,0-0.9,0.1-0.9,0.8
    c0,3.4,0,6.8,0,10.1c0,0.7,0.1,1.2,0.9,1.4c1.8,0.5,3.6,1.2,5.4,1.7c3.9,1.2,7.6,2.7,10.8,5.2c0.3,0.2,0.8,0.3,1.1,0.2
    c4.3-0.8,6.8-3.6,7.2-8C126.9,124.3,124.1,121.2,121.5,120.2z"/>
</svg>