<svg xmlns="http://www.w3.org/2000/svg" viewBox="0 0 100 100" width="24" height="24">
  <g>
    <path d="M24.8,40c0-1.1,0.9-2,2-2h10.4c1.1,0,2,0.9,2,2s-0.9,2-2,2H26.8C25.7,42,24.8,41.1,24.8,40z"/>
    <path d="M24.8,32c0-1.1,0.9-2,2-2h10.4c1.1,0,2,0.9,2,2s-0.9,2-2,2H26.8C25.7,34,24.8,33.1,24.8,32z"/>
    <path d="M24.8,48c0-1.1,0.9-2,2-2h10.4c1.1,0,2,0.9,2,2s-0.9,2-2,2H26.8C25.7,50,24.8,49.1,24.8,48z"/>
    <path d="M24.8,56c0-1.1,0.9-2,2-2h10.4c1.1,0,2,0.9,2,2s-0.9,2-2,2H26.8C25.7,58,24.8,57.1,24.8,56z"/>
    <path d="M24.8,64c0-1.1,0.9-2,2-2h10.4c1.1,0,2,0.9,2,2s-0.9,2-2,2H26.8C25.7,66,24.8,65.1,24.8,64z"/>
    <path d="M40,40c0-1.1,0.9-2,2-2h10.4c1.1,0,2,0.9,2,2s-0.9,2-2,2H42C40.9,42,40,41.1,40,40z"/>
    <path d="M40,32c0-1.1,0.9-2,2-2h10.4c1.1,0,2,0.9,2,2s-0.9,2-2,2H42C40.9,34,40,33.1,40,32z"/>
    <path d="M40,48c0-1.1,0.9-2,2-2h10.4c1.1,0,2,0.9,2,2s-0.9,2-2,2H42C40.9,50,40,49.1,40,48z"/>
    <path d="M40,56c0-1.1,0.9-2,2-2h10.4c1.1,0,2,0.9,2,2s-0.9,2-2,2H42C40.9,58,40,57.1,40,56z"/>
    <path d="M40,64c0-1.1,0.9-2,2-2h10.4c1.1,0,2,0.9,2,2s-0.9,2-2,2H42C40.9,66,40,65.1,40,64z"/>
    <circle cx="70" cy="50" r="16"/>
    <path d="M73.5,42.5h-7c-0.6,0-1,0.4-1,1s0.4,1,1,1h2v2.1c-1.2,0.3-2.2,1-2.8,2h-1.2c-0.6,0-1,0.4-1,1s0.4,1,1,1h0.8
      c-0.1,0.3-0.1,0.6-0.1,1c0,0.3,0,0.7,0.1,1h-0.8c-0.6,0-1,0.4-1,1s0.4,1,1,1h1.2c0.7,1,1.7,1.7,2.8,2v2.1h-2c-0.6,0-1,0.4-1,1
      s0.4,1,1,1h7c0.6,0,1-0.4,1-1s-0.4-1-1-1h-2v-2.1c1.2-0.3,2.2-1,2.8-2h1.2c0.6,0,1-0.4,1-1s-0.4-1-1-1h-0.8
      c0.1-0.3,0.1-0.6,0.1-1c0-0.3,0-0.7-0.1-1h0.8c0.6,0,1-0.4,1-1s-0.4-1-1-1h-1.2c-0.7-1-1.7-1.7-2.8-2v-2.1h2c0.6,0,1-0.4,1-1
      S74.1,42.5,73.5,42.5z M70,55.5c-2.5,0-4.5-2-4.5-4.5s2-4.5,4.5-4.5s4.5,2,4.5,4.5S72.5,55.5,70,55.5z"/>
  </g>
</svg>