<svg xmlns="http://www.w3.org/2000/svg" viewBox="0 0 240 120" width="24" height="24">
  <path d="M210,30H30c-5.5,0-10,4.5-10,10v60c0,5.5,4.5,10,10,10h180c5.5,0,10-4.5,10-10V40C220,34.5,215.5,30,210,30z M210,100H30
    V40h180V100z"/>
  <path d="M65,60c5.5,0,10-4.5,10-10s-4.5-10-10-10s-10,4.5-10,10S59.5,60,65,60z"/>
  <path d="M175,60c-5.5,0-10,4.5-10,10s4.5,10,10,10s10-4.5,10-10S180.5,60,175,60z"/>
  <path d="M130,70c0-8.3-6.7-15-15-15c-0.8,0-1.6,0.1-2.4,0.2c-8.2,1.2-13.8,9-12.6,17.2c0.4,2.5,1.3,4.8,2.8,6.8
    c2.9,4.1,7.6,6.7,12.7,6.8c0.8,0,1.7-0.1,2.5-0.2C125.2,84.7,130,78,130,70z"/>
  <path d="M136.5,70c0,5.8-1.9,11.1-5,15.4c-0.6,0.8-0.5,2,0.4,2.6c0.8,0.6,2,0.5,2.6-0.4c3.6-5,5.7-11.1,5.7-17.7
    c0-6.5-2.1-12.6-5.7-17.5c-0.6-0.8-1.8-1-2.6-0.4c-0.8,0.6-1,1.8-0.4,2.6C134.6,58.9,136.5,64.2,136.5,70z"/>
  <path d="M114.6,57.3c-1.2-0.9-2.9-0.7-3.8,0.5c-3.1,4.1-4.9,9.2-4.9,14.6c0,6.5,2.6,12.4,6.8,16.7c0.7,0.7,1.9,0.8,2.6,0.1
    c0.8-0.7,0.8-1.9,0.1-2.6c-3.4-3.6-5.6-8.4-5.6-13.8c0-4.4,1.5-8.6,4-12C116,59.9,115.8,58.2,114.6,57.3z"/>
</svg>